# xmcd CD database file
#
# Track frame offsets:
#	150
#	10129
#	22602
#	32505
#	47673
#	62444
#	83854
#	98598
#	118057
#	130630
#	143647
#
# Disc length: 2097 seconds
#
# Revision: 0
# Processed by: cddbd v1.5PL3 Copyright (c) Steve Scherf et al.
# Submitted via: CDex 1.40Release
#
DISCID=76082f0b
DTITLE=Speedtrucker - Another Roadhouse Girl and Fifty Bucks
DYEAR=1900
DGENRE=Country
TTITLE0=Pine Mills, Tx
TTITLE1=Truckin On
TTITLE2=All I Do Is Drive
TTITLE3=Trucked Up
TTITLE4=Never Met A Girl I Didn't Like
TTITLE5=Hard Livin', Fast Women
TTITLE6=Truck Drivin' Man (Give It All I Can)
TTITLE7=Drive On
TTITLE8=Speedtruckin'
TTITLE9=Jumper Cable Man
TTITLE10=Truckin' Side Of Life
EXTD=ID3G: 2
EXTT0=
EXTT1=
EXTT2=
EXTT3=
EXTT4=
EXTT5=
EXTT6=
EXTT7=
EXTT8=
EXTT9=
EXTT10=
PLAYORDER=
